#!OML:ASF H:\LiuWeirdWalks\Patient Classification 1\Patient 1\Session 1\male.ASF
:FULLY-SPECIFIED
:DEGREES
999
root 2.02549 17.8172 10.3259 6.66505 -4.69699 -4.87014
lowerback 14.6877 -0.167464 6.5262
upperback 1.19125 1.35981 7.12289
thorax -7.02971 0.567712 3.66626
lowerneck -16.1999 2.53232 9.64334
upperneck 10.8554 3.98651 -18.4983
head 6.59334 0.869869 -7.29998
rclavicle 7.55382e-015 7.95139e-014
rhumerus -21.2499 -38.2805 -3.02584
rradius 29.0015
rwrist 0.17974
rhand -20.7148 -4.33724
rfingers 7.12502
rthumb 5.64967 -34.2419
lclavicle 7.55382e-015 7.95139e-014
lhumerus -27.5121 31.9216 21.1546
lradius 39.1922
lwrist 11.2601
lhand -19.7366 -2.37491
lfingers 7.12502
lthumb 6.59412 27.5024
rfemur 6.10459 3.52435 15.6334
rtibia 20.8178
rfoot -8.29808 -15.4812
rtoes -17.3451
lfemur -31.3041 2.88354 -8.10837
ltibia 25.2231
lfoot 1.12268 16.2001
ltoes -18.1781
1000
root 2.04734 17.8053 10.4182 6.70353 -4.37684 -4.90762
lowerback 14.6851 -0.228212 5.81911
upperback 1.18046 1.14404 6.81945
thorax -7.0405 0.480481 3.77837
lowerneck -16.5207 2.57161 9.59517
upperneck 10.914 3.95318 -17.9314
head 6.64391 0.8791 -7.1001
rclavicle -3.57812e-015 3.33958e-014
rhumerus -21.5701 -38.4143 -2.64663
rradius 29.0717
rwrist 0.19471
rhand -20.7387 -4.39837
rfingers 7.12502
rthumb 5.62661 -34.3037
lclavicle -3.57812e-015 3.33958e-014
lhumerus -27.3092 32.1649 21.3893
lradius 39.127
lwrist 11.1286
lhand -19.7466 -2.40682
lfingers 7.12502
lthumb 6.58441 27.4708
rfemur 6.03422 3.3651 15.5905
rtibia 21.4908
rfoot -8.15272 -15.3323
rtoes -17.3438
lfemur -31.7491 3.23909 -8.33532
ltibia 26.1175
lfoot 1.77132 15.1963
ltoes -17.6678
1001
root 2.06542 17.7935 10.5074 6.75343 -3.94885 -4.9578
lowerback 14.6765 -0.305089 5.13807
upperback 1.19614 0.908713 6.52605
thorax -7.01593 0.383384 3.89153
lowerneck -16.9326 2.59654 9.51134
upperneck 10.9677 3.89356 -17.3186
head 6.70321 0.875094 -6.88224
rclavicle 1.59028e-015 1.59028e-014
rhumerus -21.9475 -38.4994 -2.2186
rradius 29.1214
rwrist 0.167598
rhand -20.7581 -4.4786
rfingers 7.12502
rthumb 5.60795 -34.3844
lclavicle 1.59028e-015 1.59028e-014
lhumerus -27.0049 32.4392 21.7302
lradius 39.0344
lwrist 10.9875
lhand -19.7534 -2.42531
lfingers 7.12502
lthumb 6.57792 27.4525
rfemur 5.91578 3.19041 15.6163
rtibia 22.2574
rfoot -7.9907 -15.2636
rtoes -17.2536
lfemur -32.2411 3.62471 -8.57261
ltibia 27.0551
lfoot 2.10821 14.1408
ltoes -16.9529
1002
root 2.08084 17.7819 10.5942 6.8128 -3.44516 -5.08162
lowerback 14.67 -0.381925 4.55217
upperback 1.21724 0.691141 6.26378
thorax -6.98413 0.292173 3.98215
lowerneck -17.3827 2.59279 9.37305
upperneck 11.0624 3.8026 -16.665
head 6.77573 0.855897 -6.64655
rclavicle -7.95139e-016 2.70347e-014
rhumerus -22.3968 -38.5113 -1.69427
rradius 29.1383
rwrist 0.0588779
rhand -20.7823 -4.62352
rfingers 7.12502
rthumb 5.58454 -34.5299
lclavicle -7.95139e-016 2.70347e-014
lhumerus -26.592 32.6528 22.2203
lradius 38.9106
lwrist 10.8721
lhand -19.7693 -2.45515
lfingers 7.12502
lthumb 6.56253 27.4232
rfemur 5.7813 3.01832 15.7676
rtibia 23.0517
rfoot -7.7708 -15.2497
rtoes -17.095
lfemur -32.759 3.98966 -8.72652
ltibia 28.0275
lfoot 2.18372 13.1135
ltoes -16.0909
1003
root 2.09633 17.7705 10.6804 6.86709 -2.89603 -5.31755
lowerback 14.6582 -0.513659 4.08218
upperback 1.21293 0.422423 6.01612
thorax -6.97188 0.17233 4.03489
lowerneck -17.6382 2.5973 9.31266
upperneck 11.1592 3.71358 -16.0018
head 6.81687 0.851803 -6.42004
rclavicle 5.56597e-015 7.95139e-015
rhumerus -22.7307 -38.4831 -1.29507
rradius 29.0653
rwrist 0.044482
rhand -20.7732 -4.71228
rfingers 7.12502
rthumb 5.59334 -34.6185
lclavicle 5.56597e-015 7.95139e-015
lhumerus -26.2949 32.6843 22.6173
lradius 38.807
lwrist 10.8645
lhand -19.7846 -2.45265
lfingers 7.12502
lthumb 6.5478 27.4261
rfemur 5.67329 2.83747 16.059
rtibia 23.8123
rfoot -7.46908 -15.2318
rtoes -16.8744
lfemur -33.2666 4.28076 -8.73725
ltibia 29.0175
lfoot 2.07861 12.185
ltoes -15.1056
1004
root 2.11303 17.7602 10.7671 6.90955 -2.34125 -5.66089
lowerback 14.6435 -0.645489 3.75787
upperback 1.21111 0.179184 5.80164
thorax -6.95458 0.0607817 4.03592
lowerneck -17.8185 2.58684 9.25259
upperneck 11.2155 3.60889 -15.3771
head 6.83211 0.842158 -6.20774
rclavicle 2.06736e-014 -2.78299e-014
rhumerus -23.0686 -38.4313 -0.852556
rradius 28.9496
rwrist 0.0447931
rhand -20.7439 -4.77341
rfingers 7.12502
rthumb 5.62159 -34.6788
lclavicle 2.06736e-014 -2.78299e-014
lhumerus -25.9642 32.6517 23.1003
lradius 38.6786
lwrist 10.8319
lhand -19.7727 -2.45981
lfingers 7.12502
lthumb 6.55925 27.4186
rfemur 5.6063 2.66823 16.4702
rtibia 24.5015
rfoot -7.07519 -15.1877
rtoes -16.6386
lfemur -33.7327 4.47025 -8.59294
ltibia 29.9932
lfoot 1.8991 11.4049
ltoes -14.0965
1005
root 2.13178 17.7517 10.8553 6.93343 -1.8234 -6.07879
lowerback 14.624 -0.778976 3.53194
upperback 1.20185 -0.0487554 5.60677
thorax -6.94269 -0.0461465 3.99948
lowerneck -17.8421 2.56964 9.23995
upperneck 11.1948 3.49775 -14.8354
head 6.7991 0.832824 -6.03053
rclavicle -1.0138e-014 1.03368e-014
rhumerus -23.3257 -38.3718 -0.457598
rradius 28.7996
rwrist -0.0191915
rhand -20.7271 -4.89957
rfingers 7.12502
rthumb 5.63782 -34.8046
lclavicle -1.0138e-014 1.03368e-014
lhumerus -25.6888 32.4938 23.6057
lradius 38.5736
lwrist 10.8566
lhand -19.7627 -2.43835
lfingers 7.12502
lthumb 6.56892 27.4398
rfemur 5.58588 2.53406 16.9507
rtibia 25.1032
rfoot -6.59149 -15.1003
rtoes -16.456
lfemur -34.1202 4.57485 -8.33255
ltibia 30.916
lfoot 1.70887 10.7869
ltoes -13.061
1006
root 2.15261 17.7461 10.9459 6.92792 -1.36779 -6.50026
lowerback 14.5891 -0.891565 3.33369
upperback 1.20372 -0.245757 5.42149
thorax -6.91161 -0.138841 3.95061
lowerneck -17.7779 2.52947 9.20617
upperneck 11.1359 3.37205 -14.3518
head 6.73934 0.814571 -5.87039
rclavicle -7.35503e-015 7.71285e-014
rhumerus -23.5369 -38.3647 -0.0593397
rradius 28.6328
rwrist -0.0839558
rhand -20.7205 -5.09463
rfingers 7.12502
rthumb 5.64421 -34.9995
lclavicle -7.35503e-015 7.71285e-014
lhumerus -25.4057 32.3204 24.1757
lradius 38.4301
lwrist 10.8106
lhand -19.7615 -2.38605
lfingers 7.12502
lthumb 6.57002 27.492
rfemur 5.61856 2.44342 17.4157
rtibia 25.6224
rfoot -6.03383 -14.9668
rtoes -16.3951
lfemur -34.39 4.60433 -8.03876
ltibia 31.7482
lfoot 1.51545 10.3397
ltoes -12.0311
1007
root 2.17457 17.7441 11.0386 6.90116 -0.98037 -6.87126
lowerback 14.5499 -0.969838 3.10246
upperback 1.21436 -0.403392 5.23631
thorax -6.87018 -0.211521 3.91219
lowerneck -17.6956 2.4772 9.15372
upperneck 11.046 3.24405 -13.9352
head 6.66886 0.789655 -5.73011
rclavicle 1.19271e-014 1.03368e-014
rhumerus -23.7271 -38.4256 0.360801
rradius 28.4805
rwrist -0.187886
rhand -20.7096 -5.25934
rfingers 7.12502
rthumb 5.65476 -35.1639
lclavicle 1.19271e-014 1.03368e-014
lhumerus -25.1094 32.1252 24.8362
lradius 38.2811
lwrist 10.7472
lhand -19.7713 -2.32959
lfingers 7.12502
lthumb 6.56059 27.5488
rfemur 5.68675 2.40715 17.8111
rtibia 26.0742
rfoot -5.42009 -14.7965
rtoes -16.45
lfemur -34.5368 4.58208 -7.77911
ltibia 32.4636
lfoot 1.32861 10.0394
ltoes -11.0149
